<svg width="52" height="36" viewBox="0 0 52 36" fill="none" xmlns="http://www.w3.org/2000/svg">
<path d="M45.7842 0.6073H6.21599C2.78842 0.6073 0 3.3956 0 6.82329V29.1766C0 32.6041 2.78842 35.3926 6.21599 35.3926H45.7841C49.2116 35.3926 52 32.6041 52 29.1766V6.82329C52.0001 3.3956 49.2117 0.6073 45.7842 0.6073ZM48.5608 29.1765C48.5608 30.7076 47.3152 31.9531 45.7842 31.9531H6.21599C4.68495 31.9531 3.43934 30.7076 3.43934 29.1765V14.1967H48.5607L48.5608 29.1765ZM48.5608 9.28986L3.43945 9.29314V6.82317C3.43945 5.29214 4.68507 4.04652 6.2161 4.04652H45.7842C47.3152 4.04652 48.5608 5.29214 48.5608 6.82317V9.28986Z" fill="white"/>
<path d="M7.70786 28.7633H17.1232C17.4604 28.7633 17.7339 28.49 17.7339 28.1529V26.2952C17.7339 25.958 17.4604 25.6847 17.1232 25.6847H7.70786C7.37064 25.6847 7.09721 25.958 7.09721 26.2952V28.1529C7.0971 28.49 7.37052 28.7633 7.70786 28.7633Z" fill="white"/>
<path d="M38.232 28.7632H41.0325C42.6489 28.7632 43.9591 27.453 43.9591 25.8368V23.0363C43.9591 21.4201 42.6489 20.1099 41.0325 20.1099H38.232C36.6158 20.1099 35.3056 21.4201 35.3056 23.0363V25.8368C35.3056 27.453 36.6158 28.7632 38.232 28.7632Z" fill="white"/>
</svg>
