<svg width="15" height="15" viewBox="0 0 15 15" fill="none" xmlns="http://www.w3.org/2000/svg">
<path d="M14.1872 5.90187L13.1382 5.724C13.0289 5.37138 12.8884 5.03125 12.7167 4.70671L13.3349 3.84233C13.5971 3.47411 13.5565 2.97171 13.2349 2.65342L12.3046 1.7235C12.1298 1.54875 11.8987 1.45202 11.6521 1.45202C11.4585 1.45202 11.2743 1.51131 11.1182 1.62364L10.2503 2.24151C9.91315 2.06364 9.56037 1.91697 9.19509 1.80776L9.02026 0.771744C8.94533 0.32551 8.56133 0.000976562 8.10864 0.000976562H6.79428C6.3416 0.000976562 5.95759 0.32551 5.88266 0.771744L5.70159 1.83272C5.35192 1.94194 5.01163 2.08548 4.68694 2.26023L3.82839 1.64237C3.6723 1.53003 3.48498 1.47074 3.29141 1.47074C3.04478 1.47074 2.81063 1.56748 2.63892 1.74222L1.70544 2.67214C1.387 2.99043 1.34329 3.49283 1.60554 3.86105L2.22994 4.73792C2.05823 5.06557 1.92086 5.40571 1.81471 5.75833L0.778211 5.93308C0.331767 6.00797 0.00708008 6.39179 0.00708008 6.84427V8.15801C0.00708008 8.61048 0.331767 8.9943 0.778211 9.0692L1.83969 9.25019C1.94896 9.59968 2.09257 9.93982 2.2674 10.2644L1.65237 11.1194C1.39012 11.4876 1.43071 11.99 1.75227 12.3083L2.68262 13.2382C2.85746 13.413 3.08848 13.5097 3.33512 13.5097C3.52868 13.5097 3.71288 13.4504 3.86898 13.3381L4.74626 12.714C5.06158 12.8793 5.39251 13.0135 5.73281 13.1196L5.90764 14.1681C5.98257 14.6144 6.36657 14.9389 6.81926 14.9389H8.13674C8.58943 14.9389 8.97343 14.6144 9.04836 14.1681L9.22631 13.1196C9.5791 13.0104 9.91939 12.87 10.2441 12.6984L11.1089 13.3162C11.265 13.4286 11.4523 13.4878 11.6459 13.4878C11.8925 13.4878 12.1235 13.3911 12.2984 13.2164L13.2287 12.2864C13.5471 11.9682 13.5909 11.4658 13.3286 11.0975L12.7105 10.23C12.8822 9.90237 13.0258 9.56224 13.1319 9.21274L14.1809 9.03799C14.6274 8.9631 14.952 8.57928 14.952 8.1268V6.81306C14.9583 6.36059 14.6336 5.97676 14.1872 5.90187ZM14.1153 8.1268C14.1153 8.16737 14.0872 8.20169 14.0467 8.20793L12.7354 8.42637C12.57 8.45445 12.4388 8.57615 12.3983 8.7353C12.2796 9.19402 12.0985 9.63401 11.855 10.0428C11.7707 10.1863 11.777 10.3642 11.8738 10.5015L12.6449 11.5875C12.6667 11.6187 12.6636 11.6655 12.6355 11.6936L11.7052 12.6235C11.6833 12.6453 11.6615 12.6484 11.6459 12.6484C11.6271 12.6484 11.6115 12.6422 11.599 12.6328L10.5157 11.8621C10.3814 11.7653 10.2004 11.7591 10.0568 11.8433C9.64778 12.0867 9.20758 12.2677 8.74865 12.3863C8.58631 12.4269 8.46455 12.5611 8.43957 12.7233L8.21791 14.0339C8.21167 14.0745 8.17732 14.1026 8.13674 14.1026H6.82238C6.7818 14.1026 6.74745 14.0745 6.74121 14.0339L6.52267 12.7233C6.49457 12.5579 6.37282 12.4269 6.21359 12.3863C5.76715 12.2708 5.33632 12.093 4.93358 11.8621C4.86802 11.8246 4.79309 11.8059 4.72128 11.8059C4.63699 11.8059 4.54957 11.8309 4.47777 11.8839L3.38507 12.6609C3.36946 12.6703 3.35385 12.6765 3.33824 12.6765C3.32575 12.6765 3.30078 12.6734 3.27892 12.6515L2.34857 11.7216C2.32047 11.6936 2.31735 11.6499 2.33921 11.6155L3.10722 10.539C3.204 10.4017 3.21024 10.2207 3.12595 10.0771C2.88243 9.67146 2.69511 9.23146 2.57648 8.77275C2.53277 8.6136 2.40165 8.4919 2.2393 8.46382L0.918701 8.23914C0.878115 8.2329 0.850017 8.19857 0.850017 8.15801V6.84427C0.850017 6.8037 0.878115 6.76938 0.918701 6.76313L2.22057 6.5447C2.38604 6.51661 2.52028 6.39491 2.56087 6.23265C2.67638 5.77393 2.85433 5.33082 3.09473 4.92203C3.17902 4.77849 3.16965 4.60062 3.07287 4.46643L2.2955 3.37425C2.27364 3.34305 2.27677 3.29624 2.30486 3.26816L3.23522 2.33824C3.25707 2.3164 3.27892 2.31328 3.29453 2.31328C3.31327 2.31328 3.32888 2.31952 3.34136 2.32888L4.41845 3.09653C4.55582 3.19326 4.73689 3.19951 4.88051 3.11525C5.28636 2.87185 5.72656 2.68462 6.1855 2.56604C6.34472 2.52235 6.46648 2.39129 6.49457 2.22903L6.71936 0.909047C6.7256 0.86848 6.75994 0.840395 6.80053 0.840395H8.11489C8.15547 0.840395 8.18981 0.86848 8.19606 0.909047L8.4146 2.2103C8.44269 2.37569 8.56445 2.50987 8.72679 2.55044C9.19821 2.66902 9.64778 2.85313 10.0661 3.09965C10.2097 3.1839 10.3877 3.17766 10.5251 3.08093L11.6021 2.30704C11.6178 2.29768 11.6334 2.29144 11.649 2.29144C11.6615 2.29144 11.6864 2.29456 11.7083 2.3164L12.6386 3.24631C12.6667 3.2744 12.6699 3.31809 12.648 3.35241L11.8769 4.43523C11.7801 4.56941 11.7739 4.7504 11.8581 4.89395C12.1017 5.30273 12.2827 5.74273 12.4014 6.20144C12.442 6.36371 12.5762 6.48541 12.7386 6.51037L14.0498 6.73193C14.0904 6.73817 14.1185 6.7725 14.1185 6.81306V8.1268H14.1153Z" fill="#868686"/>
<path d="M7.48112 4.2439C5.70158 4.2439 4.2561 5.6887 4.2561 7.46739C4.2561 9.24608 5.70158 10.6909 7.48112 10.6909C9.26065 10.6909 10.7061 9.24608 10.7061 7.46739C10.7061 5.6887 9.26065 4.2439 7.48112 4.2439ZM7.48112 9.84834C6.16676 9.84834 5.09904 8.78113 5.09904 7.46739C5.09904 6.15365 6.16676 5.08644 7.48112 5.08644C8.79548 5.08644 9.8632 6.15365 9.8632 7.46739C9.8632 8.78113 8.79548 9.84834 7.48112 9.84834Z" fill="#868686"/>
</svg>
